<svg width="16" height="16" viewBox="0 0 16 16" fill="none" xmlns="http://www.w3.org/2000/svg">
<path fill-rule="evenodd" clip-rule="evenodd" d="M8.2344 12.5656C8.08443 12.4156 8.00018 12.2121 8.00018 12C8.00018 11.7879 8.08443 11.5844 8.2344 11.4344L11.6688 8.00002L8.2344 4.56562C8.158 4.49182 8.09705 4.40354 8.05512 4.30594C8.0132 4.20834 7.99113 4.10336 7.9902 3.99714C7.98928 3.89091 8.00952 3.78557 8.04975 3.68725C8.08997 3.58894 8.14937 3.49961 8.22449 3.4245C8.2996 3.34939 8.38892 3.28998 8.48724 3.24976C8.58556 3.20953 8.6909 3.18929 8.79712 3.19022C8.90335 3.19114 9.00832 3.21321 9.10593 3.25514C9.20353 3.29706 9.29181 3.35801 9.3656 3.43442L13.3656 7.43442C13.5156 7.58444 13.5998 7.78789 13.5998 8.00002C13.5998 8.21215 13.5156 8.41559 13.3656 8.56562L9.3656 12.5656C9.21558 12.7156 9.01214 12.7998 8.8 12.7998C8.58787 12.7998 8.38443 12.7156 8.2344 12.5656Z" fill="#B1B5C3"/>
<path fill-rule="evenodd" clip-rule="evenodd" d="M3.43442 12.5656C3.28445 12.4156 3.2002 12.2121 3.2002 12C3.2002 11.7879 3.28445 11.5844 3.43442 11.4344L6.86882 8.00001L3.43442 4.56561C3.2887 4.41473 3.20806 4.21264 3.20989 4.00289C3.21171 3.79313 3.29584 3.59248 3.44417 3.44415C3.5925 3.29583 3.79315 3.21169 4.0029 3.20987C4.21266 3.20805 4.41474 3.28868 4.56562 3.43441L8.56562 7.43441C8.7156 7.58443 8.79985 7.78788 8.79985 8.00001C8.79985 8.21214 8.7156 8.41559 8.56562 8.56561L4.56562 12.5656C4.4156 12.7156 4.21216 12.7998 4.00002 12.7998C3.78789 12.7998 3.58445 12.7156 3.43442 12.5656Z" fill="#B1B5C3"/>
</svg>
