<svg width="62" height="8" viewBox="0 0 62 8" fill="none" xmlns="http://www.w3.org/2000/svg">
<path d="M0 4C0 1.79086 1.79086 0 4 0H15.5C17.7091 0 19.5 1.79086 19.5 4V4C19.5 6.20914 17.7091 8 15.5 8H4C1.79086 8 0 6.20914 0 4V4Z" fill="#50CE97"/>
<path d="M24.5 4C24.5 1.79086 26.2909 0 28.5 0H29.5C31.7091 0 33.5 1.79086 33.5 4V4C33.5 6.20914 31.7091 8 29.5 8H28.5C26.2909 8 24.5 6.20914 24.5 4V4Z" fill="#DADADA"/>
<path d="M38.5 4C38.5 1.79086 40.2909 0 42.5 0H43.5C45.7091 0 47.5 1.79086 47.5 4V4C47.5 6.20914 45.7091 8 43.5 8H42.5C40.2909 8 38.5 6.20914 38.5 4V4Z" fill="#DADADA"/>
<path d="M52.5 4C52.5 1.79086 54.2909 0 56.5 0H57.5C59.7091 0 61.5 1.79086 61.5 4V4C61.5 6.20914 59.7091 8 57.5 8H56.5C54.2909 8 52.5 6.20914 52.5 4V4Z" fill="#DADADA"/>
</svg>
